<svg width="143" height="20" viewBox="0 0 143 20" fill="none" xmlns="http://www.w3.org/2000/svg">
<g id="Logo">
<path id="Vector" d="M58.7246 9.9266L68.536 0.0693359H75.4112L61.8104 13.1191L58.7246 9.9266Z" fill="#D8CCB2"/>
<path id="Vector_2" d="M23.8662 0.0166016H29.6445L33.8106 7.91349L30.8938 13.3682L23.8662 0.0166016Z" fill="#D8CCB2"/>
<path id="Vector_3" d="M86.8929 14.7057C95.7293 12.654 94.4634 0.027832 85.0397 0.027832H75.6826V5.31919H84.6713C88.6075 5.31919 88.4413 9.5999 84.6713 9.5999H82.242" fill="#FEFCF1"/>
<path id="Vector_4" d="M94.6191 5.24443V14.7639L100.414 19.9196V0.027832L94.6191 5.24443Z" fill="#FEFCF1"/>
<path id="Vector_5" d="M110.925 0.027832H100.413V5.35519H110.925V0.027832Z" fill="#D8CCB2"/>
<path id="Vector_6" d="M100.419 7.09668H109.862V12.4074H100.419V7.09668Z" fill="#D8CCB2"/>
<path id="Vector_7" d="M100.408 14.6309H110.926V19.9194H100.414L100.408 14.6309Z" fill="#D8CCB2"/>
<path id="Vector_8" d="M112.404 0L117.82 19.9416L121.058 10.3474L118.183 0.0276889L112.404 0Z" fill="#D8CCB2"/>
<path id="Vector_9" d="M117.82 19.9412L123.618 19.9689L127.116 8.97916L124.322 0.0522461L121.058 10.347L117.82 19.9412Z" fill="#FEFCF1"/>
<path id="Vector_10" d="M124.321 0.0522461H130.23L133.521 10.3304L130.859 19.9523L127.116 8.97916L124.321 0.0522461Z" fill="#FEFCF1"/>
<path id="Vector_11" d="M130.858 19.9528L136.756 19.9251L142.157 0.027832H136.318L133.52 10.3309L130.858 19.9528Z" fill="#FEFCF1"/>
<path id="Vector_12" d="M16.515 0.0805664V9.54188L14.033 13.6537L11.1328 8.62261L16.2213 0.0805664H16.515Z" fill="#D8CCB2"/>
<path id="Vector_13" d="M0.316406 0.0634766L11.1416 18.4849L14.0419 13.6366L6.175 0.0634766H0.316406Z" fill="#FEFCF1"/>
<path id="Vector_14" d="M5.88629 9.46664L5.85859 19.9691H0V0.0634766H0.326862L5.88629 9.46664Z" fill="#D8CCB2"/>
<path id="Vector_15" d="M16.4844 19.9169H22.2793V0.0805664H16.5148L16.4844 19.9169Z" fill="#FEFCF1"/>
<path id="Vector_16" d="M30.8945 13.3682L37.9996 0.0166016H43.8527L36.7005 13.3959L30.8945 13.3682Z" fill="#FEFCF1"/>
<path id="Vector_17" d="M30.8945 13.3682V19.9111H36.7504L36.7005 13.3959L30.8945 13.3682Z" fill="#FEFCF1"/>
<path id="Vector_18" d="M68.6528 19.8834L61.7998 13.1079L65.182 9.8877L75.4699 19.8363L68.6528 19.8834Z" fill="#D8CCB2"/>
<path id="Vector_19" d="M82.2472 9.6001L91.7428 19.9004H84.3607L80.1309 14.8444L82.2472 9.6001Z" fill="#D8CCB2"/>
<path id="Vector_20" d="M56.3389 19.9999H62.1338V0.163574H56.3693L56.3389 19.9999Z" fill="#FEFCF1"/>
</g>
</svg>
