<svg width="171" height="25" viewBox="0 0 171 25" fill="none" xmlns="http://www.w3.org/2000/svg">
<g id="mk 3" clip-path="url(#clip0_907_2191)">
<g id="Calque 2">
<path id="Vector" d="M28.7041 0.0201721H35.6536L40.6642 9.61372L37.1561 16.2404L28.7041 0.0201721Z" fill="#1E1E1E"/>
<path id="Vector_2" d="M74.3859 8.34895V0.0571899H67.2998V24.1823H74.296V15.8906L70.6513 12.0592L74.3859 8.34895Z" fill="#76736E"/>
<path id="Vector_3" d="M104.506 17.8651C115.134 15.3725 113.611 0.0336304 102.277 0.0336304H91.0234V6.46184H101.834C106.568 6.46184 106.368 11.6623 101.834 11.6623H98.9125" fill="#76736E"/>
<path id="Vector_4" d="M113.798 6.37102V17.9358L120.767 24.1991V0.0336304L113.798 6.37102Z" fill="#76736E"/>
<path id="Vector_5" d="M133.411 0.0336304H120.768V6.50557H133.411V0.0336304Z" fill="#1E1E1E"/>
<path id="Vector_6" d="M120.773 8.6214H132.131V15.0732H120.773V8.6214Z" fill="#1E1E1E"/>
<path id="Vector_7" d="M120.761 17.7743H133.41V24.1991H120.767L120.761 17.7743Z" fill="#1E1E1E"/>
<path id="Vector_8" d="M135.189 0L141.703 24.2261L145.597 12.5705L142.139 0.033638L135.189 0Z" fill="#1E1E1E"/>
<path id="Vector_9" d="M141.702 24.2261L148.675 24.2597L152.883 10.9088L149.521 0.0639038L145.597 12.5705L141.702 24.2261Z" fill="#76736E"/>
<path id="Vector_10" d="M149.521 0.0639038H156.628L160.585 12.5503L157.384 24.2395L152.883 10.9088L149.521 0.0639038Z" fill="#76736E"/>
<path id="Vector_11" d="M157.384 24.2395L164.477 24.2059L170.973 0.0336304H163.95L160.585 12.5503L157.384 24.2395Z" fill="#76736E"/>
<path id="Vector_12" d="M19.8628 0.0975647V11.5917L16.8777 16.5869L13.3896 10.4749L19.5096 0.0975647H19.8628Z" fill="#1E1E1E"/>
<path id="Vector_13" d="M0.379883 0.0773621L13.3994 22.4567L16.8875 16.5667L7.42603 0.0773621H0.379883Z" fill="#76736E"/>
<path id="Vector_14" d="M7.07946 11.5008L7.04614 24.2597H0V0.0773621H0.393118L7.07946 11.5008Z" fill="#1E1E1E"/>
<path id="Vector_15" d="M19.8262 24.1958H26.7957V0.0975647H19.8628L19.8262 24.1958Z" fill="#76736E"/>
<path id="Vector_16" d="M37.1562 16.2404L45.7016 0.0201721H52.7411L44.1391 16.274L37.1562 16.2404Z" fill="#76736E"/>
<path id="Vector_17" d="M37.1562 16.2404V24.1891H44.1991L44.1391 16.2741L37.1562 16.2404Z" fill="#76736E"/>
<path id="Vector_18" d="M82.5683 24.1554L74.3262 15.9242L78.3939 12.0121L90.7672 24.0982L82.5683 24.1554Z" fill="#1E1E1E"/>
<path id="Vector_19" d="M70.6279 12.0592L82.4281 0.0841064H90.6969L74.3392 15.9377L70.6279 12.0592Z" fill="#1E1E1E"/>
<path id="Vector_20" d="M98.9193 11.6623L110.34 24.1756H101.461L96.374 18.0333L98.9193 11.6623Z" fill="#1E1E1E"/>
</g>
</g>
<defs>
<clipPath id="clip0_907_2191">
<rect width="170.973" height="24.2597" fill="white"/>
</clipPath>
</defs>
</svg>
