<svg width="38" height="38" viewBox="0 0 38 38" fill="none" xmlns="http://www.w3.org/2000/svg">
<g id="noto:money-bag">
<path id="Vector" d="M27.7458 11.7115C29.7379 11.2692 32.3325 9.29201 32.7274 8.31826C32.9589 7.74826 31.8041 6.85763 31.4953 6.49841C30.7888 5.67904 31.0738 5.27529 31.3469 4.29857C31.6586 3.18826 30.9194 1.96216 29.8714 1.48122C28.8235 1.00029 27.5707 1.15169 26.5168 1.62076C25.4629 2.08982 24.5633 2.84388 23.6816 3.58607C23.0374 3.17935 22.0102 1.38326 20.3477 2.54997C19.1988 3.35451 19.0949 5.10607 19.2433 6.50435C19.5907 9.73138 20.3863 11.4058 21.8855 11.857C23.7796 12.427 25.8755 12.1272 27.7458 11.7115Z" fill="#FFCA28"/>
<path id="Vector_2" d="M30.9815 2.42871C30.7291 6.77793 26.4868 9.66356 24.474 10.9342L25.7802 12.0564C25.7802 12.0564 26.6085 12.0742 27.7426 11.712C29.6871 11.0945 32.5282 9.34887 32.7241 8.31871C33.0121 6.81949 31.4743 7.14605 31.1269 5.96152C30.9458 5.33512 32.0087 4.15059 30.9815 2.42871ZM23.6843 3.58949C23.6843 3.58949 22.9272 2.81465 22.3662 2.46137C22.0871 2.98684 21.8882 3.55684 21.7902 4.14465C21.6151 5.17777 21.7902 6.64434 22.2029 7.73684C22.2682 7.90605 22.5116 7.87934 22.5383 7.70121C22.8946 5.35293 23.6843 3.58949 23.6843 3.58949Z" fill="#E2A610"/>
<path id="Vector_3" d="M18.3942 11.3291C18.3942 11.3291 9.13465 12.3296 4.95762 20.3689C0.780589 28.4083 4.33121 33.283 8.08965 35.0583C11.8481 36.8336 21.3184 37.46 27.4786 35.9994C33.6387 34.5388 35.1795 31.5107 34.8915 28.5864C34.4729 24.3174 30.5067 21.693 30.5067 21.693C30.5067 21.693 30.664 16.4205 26.5731 12.9975C22.9423 9.95754 18.3942 11.3291 18.3942 11.3291Z" fill="#FFCA28"/>
<path id="Vector_4" d="M22.1941 24.8569C20.208 22.3513 17.8627 22.0158 17.1116 21.1163C16.7019 20.6264 16.4614 20.1306 16.5535 19.5161C16.6514 18.863 17.4085 18.4117 17.9963 18.3019C18.6821 18.1713 20.3178 18.2395 21.6924 19.5488C22.0189 19.8575 21.9002 20.3385 21.8913 20.7689C21.8675 21.6922 23.1886 22.5888 24.2574 21.8169C25.3291 21.042 24.5067 19.3172 23.815 18.48C23.2925 17.8477 21.3985 16.4553 19.0442 16.2356C18.3822 16.1733 15.7192 15.7785 14.1814 18.7027C13.7391 19.5428 13.5758 21.5735 15.8914 23.2894C16.3753 23.6486 18.8869 24.9252 19.5846 25.7535C20.7928 27.1874 19.9646 28.4491 19.0205 28.6153C16.4466 29.0666 14.9889 27.6742 14.7188 26.9113C14.5258 26.368 14.7277 25.7802 14.4783 25.2695C14.223 24.7441 13.7005 24.5363 13.1483 24.7114C11.3374 25.2874 11.9133 27.2675 12.7149 28.357C13.5728 29.5238 14.6267 30.2274 15.8113 30.6133C20.2317 32.0531 22.3574 29.7791 22.7285 28.1136C23.0016 26.8935 22.9719 25.8366 22.1941 24.8569Z" fill="#6B4B46"/>
<path id="Vector_5" d="M21.1254 14.5439C17.364 22.5774 16.7168 32.7216 16.7168 32.7216" stroke="#6B4B46" stroke-miterlimit="10"/>
<path id="Vector_6" d="M24.2453 9.48828C26.751 10.3047 27.3061 12.5698 27.125 13.1873C26.9083 13.9117 24.1325 11.0914 20.006 11.2606C18.5632 11.32 18.9818 10.4353 19.6497 9.92469C20.5314 9.25078 22.0128 8.76391 24.2453 9.48828Z" fill="#6D4C41"/>
<path id="Vector_7" d="M24.2453 9.48828C26.751 10.3047 27.3061 12.5698 27.125 13.1873C26.9083 13.9117 24.1325 11.0914 20.006 11.2606C18.5632 11.32 18.9818 10.4353 19.6497 9.92469C20.5314 9.25078 22.0128 8.76391 24.2453 9.48828Z" fill="#6B4B46"/>
<path id="Vector_8" d="M28.6453 17.4741C28.9599 17.2573 30.0168 17.6314 30.3137 19.7006C30.4592 20.713 30.5037 21.6926 30.5037 21.6926C30.5037 21.6926 29.2568 20.5734 28.8442 19.7867C28.3246 18.7922 28.1228 17.8303 28.6453 17.4741Z" fill="#E2A610"/>
</g>
</svg>
